<?xml version="1.0" standalone="no"?>
<!DOCTYPE svg PUBLIC "-//W3C//DTD SVG 20010904//EN"
 "http://www.w3.org/TR/2001/REC-SVG-20010904/DTD/svg10.dtd">
<svg version="1.0" xmlns="http://www.w3.org/2000/svg"
 width="128.000000pt" height="128.000000pt" viewBox="0 0 128.000000 128.000000"
 preserveAspectRatio="xMidYMid meet">
<metadata>
Created by potrace 1.14, written by Peter Selinger 2001-2017
</metadata>
<g transform="translate(0.000000,128.000000) scale(0.100000,-0.100000)"
fill="#000000" stroke="none">
<path d="M0 640 l0 -640 640 0 640 0 0 640 0 640 -640 0 -640 0 0 -640z m869
304 c-45 -199 -45 -194 -22 -194 11 0 75 11 143 25 68 14 128 25 134 25 6 0
-5 -15 -24 -33 -32 -30 -48 -35 -159 -55 -68 -12 -125 -23 -127 -24 -11 -12
-74 -333 -74 -379 0 -65 5 -61 -92 -74 -55 -7 -56 -6 -32 70 8 28 24 82 34
120 11 39 30 110 44 158 l24 88 -46 -7 c-26 -3 -52 -11 -59 -16 -10 -8 -165
-268 -231 -388 -14 -25 -29 -51 -35 -57 -9 -12 -97 -19 -97 -8 0 2 33 55 73
117 41 62 104 160 141 216 37 57 65 106 63 108 -2 3 -64 -6 -136 -19 -73 -13
-134 -21 -136 -17 -13 20 43 43 161 65 71 14 135 27 144 30 15 5 49 53 193
277 69 107 78 117 109 120 18 2 34 0 36 -3 2 -4 -11 -69 -29 -145z"/>
<path d="M770 927 c-13 -23 -45 -78 -72 -123 -26 -45 -48 -84 -48 -87 0 -9 62
4 76 15 7 5 14 19 17 31 3 12 17 62 31 112 14 49 24 90 22 92 -1 1 -13 -16
-26 -40z"/>
</g>
</svg>
